<svg xmlns="http://www.w3.org/2000/svg" version="1.1" xmlns:xlink="http://www.w3.org/1999/xlink" width="1500" height="146" viewBox="0 0 1500 146"><svg xml:space="preserve" width="1500" height="146" data-version="2" data-id="lg_8RSAogqRNJtsodFNrh" viewBox="0 0 568 146" x="0" y="0"><rect width="100%" height="100%" fill="transparent"></rect><path fill="#ff5c40" d="M201.39 95.5h-7.43V38.49h-20v-6.52h47.33v6.52h-19.9Z"></path><rect width="47.33" height="63.53" x="-23.66" y="-31.77" fill="none" rx="0" ry="0" transform="translate(198.13 64.23)"></rect><path fill="#ff5c40" d="M251.45 47q1.43 0 3 .16 1.56.15 2.78.41l-.91 6.69q-1.18-.3-2.61-.48-1.44-.17-2.7-.17-2.86 0-5.41 1.15-2.54 1.15-4.45 3.3-1.91 2.16-3 5.18-1.09 3.02-1.09 6.71V95.5h-7.25V47.87h5.99l.79 8.78h.3q1.48-2.65 3.56-4.84 2.09-2.2 4.85-3.5 2.76-1.31 6.15-1.31"></path><rect width="27.42" height="48.5" x="-13.71" y="-24.25" fill="none" rx="0" ry="0" transform="translate(244.02 71.75)"></rect><path fill="#ff5c40" d="M273.39 47.87V95.5h-7.21V47.87Zm-3.52-17.81q1.79 0 3.07 1.15 1.28 1.15 1.28 3.58 0 2.39-1.28 3.57-1.28 1.17-3.07 1.17-1.86 0-3.1-1.17-1.24-1.18-1.24-3.57 0-2.43 1.24-3.58t3.1-1.15"></path><rect width="8.69" height="65.44" x="-4.34" y="-32.72" fill="none" rx="0" ry="0" transform="translate(270.38 63.28)"></rect><path fill="#ff5c40" d="M311.03 47q8.91 0 14.21 6.13 5.3 6.13 5.3 18.43 0 8.12-2.43 13.64-2.44 5.52-6.85 8.35-4.41 2.82-10.41 2.82-3.78 0-6.64-1-2.87-1-4.92-2.69-2.04-1.7-3.38-3.7h-.53q.13 1.7.33 4.09.2 2.39.2 4.17v19.56h-7.26V47.87h5.95l.96 7.04h.35q1.39-2.17 3.38-3.97 2-1.81 4.89-2.87 2.89-1.07 6.85-1.07m-1.26 6.09q-4.96 0-7.98 1.91-3.02 1.91-4.41 5.72-1.39 3.8-1.47 9.53v1.39q0 6.05 1.32 10.22 1.33 4.17 4.39 6.34 3.06 2.17 8.24 2.17 4.43 0 7.38-2.39 2.96-2.39 4.41-6.67 1.46-4.28 1.46-9.84 0-8.43-3.28-13.41-3.28-4.97-10.06-4.97"></path><rect width="41.89" height="69.8" x="-20.95" y="-34.9" fill="none" rx="0" ry="0" transform="translate(310.1 82.4)"></rect><path fill="#ff5c40" d="m381.86 95.42-8.47-27.73q-.57-1.78-1.07-3.5-.5-1.71-.91-3.3-.41-1.59-.74-2.96-.32-1.36-.54-2.36h-.3q-.18 1-.48 2.36-.31 1.37-.72 2.98-.41 1.61-.89 3.37-.48 1.76-1.09 3.54l-8.86 27.6h-8.13l-13.12-47.63h7.47l6.87 26.29q.69 2.61 1.32 5.15.63 2.54 1.09 4.78.46 2.24.67 3.89h.35q.26-1.09.59-2.61.32-1.52.74-3.24.41-1.71.89-3.43.48-1.72.95-3.24l8.78-27.59h7.78l8.48 27.55q.65 2.08 1.28 4.34t1.15 4.37q.52 2.11.74 3.76h.35q.17-1.48.65-3.65t1.11-4.78q.63-2.61 1.32-5.3l6.95-26.29h7.35l-13.17 47.63Z"></path><rect width="66.88" height="47.63" x="-33.44" y="-23.82" fill="none" rx="0" ry="0" transform="translate(370.48 72.1)"></rect><path fill="#ff5c40" d="M419.28 27.88v20.21q0 1.74-.09 3.5-.08 1.76-.3 3.24h.48q1.47-2.52 3.76-4.24 2.28-1.72 5.19-2.61 2.91-.89 6.17-.89 5.74 0 9.58 1.83 3.85 1.82 5.78 5.65 1.94 3.82 1.94 9.9V95.5h-7.13V64.95q0-5.95-2.72-8.91-2.71-2.95-8.32-2.95-5.3 0-8.45 2.02-3.15 2.02-4.52 5.93-1.37 3.91-1.37 9.56v24.9h-7.21V27.88Z"></path><rect width="39.72" height="67.62" x="-19.86" y="-33.81" fill="none" rx="0" ry="0" transform="translate(432.43 62.19)"></rect><path fill="#ff5c40" d="M473.86 47.87V95.5h-7.21V47.87Zm-3.52-17.81q1.78 0 3.07 1.15 1.28 1.15 1.28 3.58 0 2.39-1.28 3.57-1.29 1.17-3.07 1.17-1.87 0-3.11-1.17-1.23-1.18-1.23-3.57 0-2.43 1.23-3.58 1.24-1.15 3.11-1.15"></path><rect width="8.69" height="65.44" x="-4.34" y="-32.72" fill="none" rx="0" ry="0" transform="translate(470.85 63.28)"></rect><path fill="#ff5c40" d="M519.71 95.5h-34.72v-4.78l26.11-37.2h-24.46v-5.65h32.5v5.35L493.37 89.9h26.34Z"></path><rect width="34.72" height="47.63" x="-17.36" y="-23.82" fill="none" rx="0" ry="0" transform="translate(502.85 72.19)"></rect><path fill="#ff5c40" d="M561.43 95.5h-34.72v-4.78l26.11-37.2h-24.46v-5.65h32.5v5.35L535.09 89.9h26.34Z"></path><rect width="34.72" height="47.63" x="-17.36" y="-23.82" fill="none" rx="0" ry="0" transform="translate(544.57 72.19)"></rect><path fill="#5dd8a1" d="M146.757 5.298a3.51 3.51 0 0 0-.554-.707l-.632-.635a3.857 3.857 0 0 0-.689-.535c-7.084-4.252-20.276-.276-29.406 8.86l-13.362 13.358-60.64-4.042c-.099-.005-.196-.01-.294-.01-5.033.07-8.851 2.838-9.726 7.06-.86 4.147 1.316 10.416 10.275 14.468L70.675 57.59c-4.73 5.557-13.634 16.299-18.076 23.525L35.737 82.99a3.67 3.67 0 0 0-3.242 4.056l1.037 9.345a3.67 3.67 0 0 0 3.131 3.228l12.163 1.737 1.74 12.167a3.674 3.674 0 0 0 3.228 3.13l9.346 1.037a3.704 3.704 0 0 0 2.697-.78 3.682 3.682 0 0 0 1.357-2.465l1.87-16.863c7.23-4.44 17.969-13.34 23.527-18.071l14.474 28.945c3.521 7.783 8.716 10.447 12.74 10.447.604 0 1.186-.06 1.725-.171 4.224-.875 6.991-4.693 7.056-9.726 0-.099 0-.196-.005-.294l-4.047-60.647 13.36-13.359c9.138-9.132 13.115-22.323 8.863-29.407m-28.588 38.75a3.679 3.679 0 0 0-1.07 2.843l4.144 62.144c-.037 1.12-.367 2.33-1.2 2.502-1.247.253-4.074-1.181-6.318-6.167a1.775 1.775 0 0 0-.065-.136l-16.614-33.23a3.661 3.661 0 0 0-5.701-1.117c-.186.16-18.616 16.31-27.508 21.248a3.674 3.674 0 0 0-1.866 2.806l-1.67 15.043-2.87-.32-1.674-11.722a3.68 3.68 0 0 0-1.242-2.266 3.652 3.652 0 0 0-2.275-1.251L40.515 92.75l-.316-2.87 15.043-1.676a3.668 3.668 0 0 0 2.806-1.865c4.94-8.895 21.084-27.321 21.248-27.506a3.679 3.679 0 0 0-1.116-5.707L44.948 36.514c-.046-.024-.094-.042-.14-.066-4.982-2.237-6.429-5.061-6.168-6.312.171-.832 1.386-1.166 2.507-1.202l62.144 4.142a3.693 3.693 0 0 0 2.842-1.067l14.534-14.538c7.325-7.326 16.434-9.52 20.011-7.969 1.545 3.582-.646 12.684-7.972 20.011z"></path><path fill="#5dd8a1" d="M39.008 66.721a3.672 3.672 0 0 0-5.192-5.19L6.648 88.7a3.668 3.668 0 0 0 0 5.193 3.664 3.664 0 0 0 5.191 0zm43.266 46.212-23.493 23.494a3.663 3.663 0 0 0 0 5.19 3.652 3.652 0 0 0 2.596 1.079 3.652 3.652 0 0 0 2.596-1.078l23.495-23.494a3.666 3.666 0 0 0 0-5.191 3.668 3.668 0 0 0-5.194 0m-45.522-4.408-24.23 24.233a3.666 3.666 0 0 0 2.596 6.265c.94 0 1.88-.357 2.596-1.073l24.23-24.23a3.676 3.676 0 0 0 0-5.193 3.67 3.67 0 0 0-5.192-.002"></path></svg></svg>